<svg width="90" height="37" viewBox="0 0 125 37" fill="none" xmlns="http://www.w3.org/2000/svg">
    <path d="M16.6453 13.3233C16.0308 13.4 15.3424 13.4393 14.5801 13.4414C13.8377 13.4177 12.9061 13.3595 11.7855 13.2668L11.1939 20.2824L16.1781 19.6606L15.945 22.271L10.9608 22.8928L9.78685 36.1555L4.87094 36.7688L6.95987 13.206C5.39797 13.4707 4.33479 14.2196 3.77034 15.4528C3.22864 16.6831 3.1045 18.4893 3.39792 20.8713C3.45152 21.3064 3.52083 21.6815 3.60585 21.9965C3.71362 22.3086 3.85413 22.605 4.02736 22.8857C4.08416 22.9717 4.11538 23.0376 4.12103 23.0834C4.14661 23.1034 4.16081 23.1249 4.16363 23.1478C2.88913 23.3068 1.92357 23.1598 1.26695 22.7069C0.630266 22.2282 0.24139 21.4162 0.100323 20.271C-0.235417 17.5455 0.510737 15.2548 2.33878 13.3988C4.18677 11.5171 6.95423 10.3463 10.6412 9.88633C10.846 9.86078 11.0978 9.841 11.3964 9.82699C11.6951 9.81298 12.1901 9.79774 12.8813 9.78128C13.803 9.75932 14.5056 9.74143 14.9891 9.72762C15.4927 9.68805 15.9493 9.64272 16.3589 9.59161C16.9734 9.51495 17.5268 9.41103 18.019 9.27986C18.5112 9.14868 18.9651 8.98741 19.3806 8.79604C19.3635 8.84469 19.3048 9.21247 19.2045 9.89939C19.1043 10.5863 18.953 11.1401 18.7506 11.5607C18.5482 11.9813 18.2691 12.3417 17.9132 12.6419C17.5773 12.9163 17.1546 13.1435 16.6453 13.3233Z" fill="#C6E3E8" />
    <path d="M23.289 12.3898C23.3821 13.1456 23.188 13.821 22.7067 14.4159C22.2481 15.008 21.6433 15.3509 20.8923 15.4446C20.1412 15.5383 19.4715 15.3544 18.8832 14.8929C18.2949 14.4314 17.9541 13.8228 17.861 13.067C17.7679 12.3112 17.9507 11.6372 18.4092 11.0451C18.865 10.4301 19.4684 10.0758 20.2194 9.98208C20.9704 9.88839 21.6415 10.0837 22.2327 10.5681C22.8438 11.0268 23.1959 11.634 23.289 12.3898ZM16.7802 31.3063C16.7435 31.0086 16.7253 30.6736 16.7257 30.3015C16.7233 29.9064 16.7408 29.4857 16.7782 29.0391L17.7411 17.7214L22.657 17.1081L21.638 29.0956C21.6178 29.3074 21.6077 29.5064 21.6075 29.6925C21.6045 29.8556 21.6143 30.0288 21.6368 30.212C21.6933 30.6701 21.8366 30.9894 22.0668 31.17C22.317 31.3249 22.6924 31.371 23.1931 31.3086C23.8303 31.2291 24.3996 30.879 24.9009 30.2583C25.3993 29.6148 25.73 28.8293 25.8931 27.902L27.3269 27.7231C26.8554 29.8982 26.0714 31.6007 24.9751 32.8304C23.8787 34.0602 22.5339 34.7745 20.9408 34.9733C19.8029 35.1152 18.8602 34.8724 18.1127 34.2447C17.3852 33.5913 16.941 32.6118 16.7802 31.3063Z" fill="#C6E3E8" />
    <path d="M34.2131 29.3756C34.1623 28.9634 34.1444 28.4424 34.1592 27.8126C34.1969 27.18 34.2918 26.1682 34.4439 24.7771C34.6017 23.4319 34.6909 22.4673 34.7114 21.8833C34.7319 21.2994 34.7182 20.8127 34.6702 20.4234C34.5997 19.8508 34.4436 19.4284 34.2021 19.1562C33.9606 18.884 33.635 18.7734 33.2254 18.8245C32.6792 18.8927 32.2024 19.2429 31.795 19.8751C31.4075 20.4816 31.1265 21.2957 30.9519 22.3174L29.989 33.6351L25.0731 34.2484L26.5757 16.6193L31.4917 16.006L31.3362 17.8393C31.8262 17.127 32.3814 16.5694 33.0019 16.1664C33.6224 15.7634 34.3196 15.5136 35.0934 15.4171C36.2996 15.2666 37.2736 15.4823 38.0155 16.0642C38.7573 16.6461 39.2058 17.5668 39.361 18.8265C39.4259 19.3533 39.4352 19.9917 39.3889 20.7416C39.3626 21.4658 39.259 22.595 39.0783 24.1292C38.9263 25.3342 38.8344 26.1829 38.8026 26.6752C38.7708 27.1675 38.7747 27.574 38.8142 27.8947C38.8734 28.3756 39.0324 28.7279 39.291 28.9515C39.5468 29.1521 39.9023 29.224 40.3575 29.1672C40.9264 29.0963 41.3918 28.8405 41.7535 28.4001C42.1152 27.9596 42.4816 27.0883 42.8527 25.7862L44.2865 25.6073C43.8206 27.8282 43.1291 29.5308 42.2119 30.7149C41.3176 31.8963 40.1535 32.5764 38.7197 32.7553C37.4452 32.9143 36.4128 32.6942 35.6227 32.0951C34.8297 31.4731 34.3598 30.5666 34.2131 29.3756Z" fill="#C6E3E8" />
    <path d="M47.5663 25.547C47.6764 26.4402 47.8848 27.1003 48.1915 27.5271C48.4955 27.931 48.9661 28.0933 49.6033 28.0138C50.1723 27.9428 50.6975 27.6098 51.1788 27.0149C51.6573 26.3971 51.9482 25.6631 52.0514 24.813L52.0303 24.6413L52.7339 16.5652C52.6205 16.2072 52.4259 15.9408 52.1502 15.7659C51.8944 15.5653 51.573 15.4891 51.1861 15.5373C49.9344 15.6935 48.949 16.8862 48.2299 19.1154C47.5336 21.3418 47.3124 23.4857 47.5663 25.547ZM52.8465 14.9465L52.8634 15.0839L53.5628 6.97348L58.5307 5.65605L56.89 24.6978C56.8699 24.9096 56.8598 25.1085 56.8596 25.2946C56.8566 25.4577 56.8664 25.6309 56.8889 25.8142C56.9453 26.2722 57.0887 26.5916 57.3189 26.7721C57.569 26.927 57.9445 26.9732 58.4452 26.9107C59.0369 26.8369 59.5393 26.5068 59.9523 25.9204C60.3654 25.334 60.6606 24.5413 60.838 23.5425L62.2718 23.3636C61.8173 25.49 61.0846 27.1396 60.0737 28.3122C59.0854 29.482 57.7834 30.1677 56.1675 30.3692C55.2344 30.4857 54.4409 30.3288 53.7871 29.8988C53.1533 29.443 52.7102 28.7541 52.458 27.8321C51.905 28.9708 51.2399 29.8561 50.4627 30.4879C49.6855 31.1198 48.7963 31.4981 47.7949 31.6231C46.3838 31.7991 45.2094 31.4573 44.2716 30.5975C43.3565 29.7349 42.7904 28.4219 42.5731 26.6583C42.4151 25.3757 42.4435 24.0117 42.6583 22.5663C42.8731 21.1209 43.2514 19.783 43.7931 18.5527C44.4687 17.0963 45.3204 15.9436 46.3481 15.0944C47.373 14.2224 48.5454 13.704 49.8655 13.5393C50.7531 13.4286 51.4556 13.5038 51.973 13.7648C52.4876 14.0029 52.7788 14.3968 52.8465 14.9465Z" fill="#C6E3E8" />
    <path d="M65.919 12.0598C65.7779 10.9146 66.0124 9.72262 66.6224 8.48374C67.2551 7.24202 68.1978 6.07791 69.4505 4.99141C70.5181 4.09079 71.6865 3.352 72.9557 2.77506C74.2449 2.17237 75.5267 1.79153 76.8012 1.63253L78.1668 1.46217L76.0508 26.4934C75.8059 29.5704 75.0483 31.8626 73.7782 33.3699C72.508 34.8771 70.6212 35.7869 68.1177 36.0993C66.5473 36.2952 65.2534 36.0148 64.2358 35.258C63.241 34.4984 62.6519 33.3742 62.4685 31.8855C62.3077 30.58 62.5606 29.4438 63.2272 28.4769C63.8909 27.4871 64.8373 26.9156 66.0663 26.7623C67.2953 26.6089 68.1841 26.6957 68.7327 27.0226C69.2786 27.3266 69.5995 27.868 69.6954 28.6467C69.7179 28.8299 69.7206 29.0389 69.7033 29.2736C69.7116 29.5284 69.6971 29.786 69.6598 30.0465C69.2334 29.7741 68.8638 29.5876 68.551 29.4871C68.2382 29.3866 67.8884 29.3605 67.5015 29.4088C66.796 29.4968 66.2452 29.8097 65.8493 30.3474C65.4761 30.8824 65.3347 31.5163 65.425 32.2492C65.5153 32.9821 65.8034 33.5392 66.2894 33.9204C66.7982 34.2988 67.3826 34.4468 68.0426 34.3645C68.9302 34.2537 69.5621 33.8493 69.9383 33.1512C70.3401 32.4732 70.6157 31.3342 70.7652 29.7341L73.1033 4.53571C71.6347 5.37008 70.5598 6.49255 69.8785 7.90311C69.2172 9.28792 68.9965 10.8736 69.2166 12.6601C69.2702 13.0952 69.3395 13.4703 69.4245 13.7853C69.5323 14.0974 69.6728 14.3938 69.846 14.6745C69.9028 14.7605 69.9341 14.8263 69.9397 14.8722C69.9653 14.8922 69.9795 14.9137 69.9823 14.9366C68.7078 15.0956 67.7423 14.9486 67.0856 14.4957C66.449 14.017 66.0601 13.205 65.919 12.0598Z" fill="#C6E3E8" />
    <path d="M78.7818 22.176C78.621 20.8704 78.6552 19.4592 78.8843 17.9423C79.1361 16.4225 79.5556 15.0446 80.1429 13.8086C80.8185 12.3522 81.7057 11.2066 82.8045 10.3719C83.9005 9.51422 85.1768 8.99454 86.6334 8.81283C88.0899 8.63111 89.2388 8.9529 90.0799 9.77818C90.9211 10.6035 91.4545 11.9323 91.6802 13.7646C91.7285 13.7818 91.7769 13.799 91.8252 13.8162C91.8935 13.8077 91.9732 13.7978 92.0642 13.7864C92.7697 13.6984 93.5878 13.3987 94.5185 12.8872C95.4491 12.3758 96.2988 11.7698 97.0676 11.0692L97.4891 11.9585C96.9365 12.7251 96.1564 13.4271 95.1488 14.0644C94.1639 14.6989 93.047 15.1987 91.7979 15.5638C91.9056 18.6899 91.3256 21.2971 90.0576 23.3855C88.7897 25.4739 87.0747 26.653 84.9126 26.9227C83.1374 27.1441 81.7269 26.855 80.6809 26.0553C79.6349 25.2555 79.0019 23.9624 78.7818 22.176ZM87.1646 10.8744C86.0722 11.0107 85.1735 12.2507 84.4686 14.5945C83.7864 16.9354 83.568 19.1021 83.8134 21.0948C83.946 22.1712 84.1501 22.8899 84.4257 23.2509C84.724 23.609 85.2145 23.7455 85.8973 23.6603C86.7394 23.5553 87.4513 22.7688 88.033 21.3009C88.6376 19.8301 88.9522 18.07 88.9771 16.0204C88.65 15.9914 88.3927 15.8723 88.2051 15.6632C88.0376 15.4283 87.9284 15.1047 87.8776 14.6924C87.824 14.2573 87.8685 13.868 88.011 13.5246C88.1536 13.1813 88.3857 12.9081 88.7074 12.7052C88.5716 11.978 88.3829 11.4783 88.1414 11.2061C87.9226 10.931 87.597 10.8205 87.1646 10.8744Z" fill="#C6E3E8" />
    <path d="M100.046 25.1045C98.5214 25.2947 97.2914 25.0644 96.3562 24.4137C95.4409 23.7371 94.8973 22.7003 94.7252 21.3032C94.6857 20.9826 94.6689 20.6591 94.675 20.3327C94.681 20.0064 94.697 19.6672 94.7229 19.3151L96.2555 1.64736L101.223 0.329926L100.537 8.26433C101.041 7.85263 101.489 7.55252 101.882 7.36399C102.294 7.14972 102.74 7.01277 103.218 6.95314C104.56 6.78563 105.623 7.15313 106.404 8.05564C107.205 8.93242 107.727 10.3557 107.97 12.3254C108.136 13.6767 108.102 15.0879 107.867 16.559C107.633 18.0302 107.216 19.338 106.617 20.4824C105.928 21.8242 105.031 22.8896 103.926 23.6786C102.819 24.4446 101.526 24.9199 100.046 25.1045ZM99.5435 20.1789C99.6084 20.7056 99.8057 21.088 100.135 21.3259C100.485 21.5381 100.956 21.6073 101.547 21.5335C102.572 21.4057 103.382 20.386 103.978 18.4744C104.575 16.5628 104.75 14.6107 104.505 12.6181C104.386 11.6561 104.118 10.8873 103.701 10.3115C103.306 9.73281 102.835 9.47756 102.289 9.5457C101.925 9.59113 101.545 9.69666 101.15 9.86228C100.754 10.0279 100.488 10.2123 100.351 10.4154L99.5485 19.3759C99.5427 19.5162 99.5369 19.6564 99.5311 19.7967C99.5252 19.9369 99.5294 20.0643 99.5435 20.1789Z" fill="#C6E3E8" />
    <path d="M120.662 16.4977C120.696 16.7726 120.714 17.0145 120.717 17.2234C120.719 17.4324 120.709 17.6313 120.686 17.8202C121.108 17.4886 121.516 17.147 121.912 16.7953C122.308 16.4436 122.648 16.1104 122.933 15.7958L124.366 15.617C123.762 16.5295 123.072 17.3947 122.294 18.2126C121.537 19.0048 120.663 19.7883 119.672 20.563C119.14 21.3039 118.418 21.9172 117.507 22.4029C116.594 22.8657 115.613 23.1624 114.566 23.293C113.042 23.4832 111.773 23.2229 110.761 22.5119C109.769 21.7752 109.196 20.777 109.041 19.5173C108.953 18.8073 109.045 18.1447 109.316 17.5295C109.584 16.8914 109.964 16.4138 110.456 16.0965C111.058 14.6029 111.592 13.0247 112.057 11.362C112.542 9.67356 112.991 7.68738 113.403 5.40345L118.371 4.08602C118.65 5.79527 118.923 7.35424 119.189 8.76291C119.455 10.1716 119.759 11.7034 120.102 13.3583C120.289 14.3117 120.418 14.9817 120.488 15.3682C120.559 15.7548 120.617 16.1312 120.662 16.4977ZM114.065 9.08828C113.884 10.0642 113.642 11.0945 113.336 12.1791C113.051 13.238 112.638 14.4871 112.099 15.9264C112.364 16.0097 112.577 16.1459 112.739 16.335C112.901 16.5241 112.999 16.7561 113.033 17.0309C113.086 17.4661 112.986 17.8739 112.733 18.2544C112.479 18.6348 112.147 18.8506 111.738 18.9017C111.51 18.9301 111.313 18.9199 111.145 18.8711C110.974 18.7993 110.846 18.699 110.761 18.5701C110.865 19.4175 111.101 20.0161 111.468 20.3657C111.854 20.6895 112.411 20.806 113.14 20.7152C114.073 20.5988 114.767 20.2331 115.223 19.6181C115.679 19.0031 115.843 18.1803 115.716 17.1496C115.677 16.829 115.626 16.5097 115.564 16.1919C115.498 15.8512 115.384 15.2957 115.22 14.5255C114.973 13.4633 114.765 12.5241 114.595 11.7081C114.425 10.8921 114.249 10.0188 114.065 9.08828Z" fill="#C6E3E8" />
</svg>