<svg class="employer" width="90" height="15" viewBox="0 0 100 14" fill="none"
    xmlns="http://www.w3.org/2000/svg">
    <path d="M4.68001 1.36227C4.26575 1.36227 3.9382 1.47861 3.69735 1.7113C3.4565 1.93429 3.28309 2.28816 3.17711 2.77293L3.04705 3.38373H5.2725L5.04129 4.53261H2.85919L1.54415 11.0915H0.15686L1.4719 4.53261H0.15686L0.373625 3.38373H1.70311L1.84762 2.65658C2.00177 1.87127 2.31487 1.27016 2.78694 0.853265C3.26864 0.426674 3.89966 0.213379 4.68001 0.213379C4.99794 0.213379 5.29659 0.257008 5.57597 0.344265C5.86499 0.421827 6.10103 0.53817 6.28407 0.693294L5.70603 1.72584C5.43628 1.48346 5.09428 1.36227 4.68001 1.36227Z" fill="white" />
    <path d="M8.53447 11.1787C7.81192 11.1787 7.1809 11.043 6.64139 10.7715C6.10189 10.4903 5.68281 10.0977 5.38416 9.59354C5.08551 9.08938 4.93618 8.50767 4.93618 7.84839C4.93618 6.98551 5.12886 6.20989 5.51422 5.52153C5.89958 4.83317 6.43426 4.29508 7.11828 3.90727C7.80229 3.50977 8.57301 3.31101 9.43043 3.31101C10.153 3.31101 10.784 3.44675 11.3235 3.71821C11.863 3.98968 12.2773 4.37749 12.5663 4.88164C12.8649 5.3761 13.0143 5.95782 13.0143 6.62679C13.0143 7.48967 12.8216 8.27014 12.4362 8.96819C12.0509 9.65656 11.5162 10.1995 10.8322 10.597C10.1578 10.9848 9.3919 11.1787 8.53447 11.1787ZM8.62118 9.95711C9.18958 9.95711 9.70018 9.82138 10.153 9.54991C10.6154 9.26875 10.9719 8.88094 11.2224 8.38648C11.4825 7.89202 11.6125 7.32969 11.6125 6.6995C11.6125 6.01114 11.415 5.4779 11.02 5.09979C10.625 4.72167 10.0615 4.53261 9.32927 4.53261C8.76087 4.53261 8.25027 4.6732 7.79747 4.95436C7.34467 5.22583 6.98822 5.60879 6.7281 6.10325C6.46798 6.5977 6.33792 7.16003 6.33792 7.79022C6.33792 8.46889 6.53542 9.00213 6.93041 9.38994C7.33504 9.76805 7.89863 9.95711 8.62118 9.95711Z" fill="white" />
    <path d="M16.7537 4.53261C17.0909 4.10602 17.5051 3.79578 17.9965 3.60187C18.4878 3.40796 19.0851 3.31101 19.7884 3.31101L19.5283 4.6635C19.4416 4.65381 19.3211 4.64896 19.167 4.64896C17.5774 4.64896 16.614 5.51184 16.2768 7.23759L15.5109 11.0915H14.1236L15.641 3.38373H16.9705L16.7537 4.53261Z" fill="white" />
    <path d="M25.2756 7.67388V7.76113C25.2756 8.47858 25.4779 9.02636 25.8825 9.40448C26.2871 9.7729 26.8941 9.95711 27.7033 9.95711C28.1754 9.95711 28.6186 9.87955 29.0328 9.72442C29.4471 9.5596 29.7939 9.34146 30.0733 9.06999L30.6658 10.0735C30.2901 10.4225 29.8325 10.6939 29.293 10.8879C28.7534 11.0818 28.185 11.1787 27.5877 11.1787C26.8363 11.1787 26.186 11.043 25.6369 10.7715C25.0877 10.5 24.6638 10.1122 24.3652 9.60808C24.0665 9.10393 23.9172 8.51252 23.9172 7.83385C23.9172 6.97097 24.1002 6.19535 24.4663 5.50699C24.8421 4.81862 25.3575 4.28054 26.0126 3.89273C26.6773 3.50492 27.4191 3.31101 28.238 3.31101C29.2785 3.31101 30.107 3.61157 30.7236 4.21267C31.3498 4.80408 31.6629 5.61363 31.6629 6.64133C31.6629 6.95158 31.6292 7.29576 31.5618 7.67388H25.2756ZM28.1802 4.47444C27.4962 4.47444 26.9085 4.66835 26.4172 5.05616C25.9259 5.44397 25.5935 5.97721 25.4201 6.65588H30.3623C30.4009 5.96751 30.2178 5.43427 29.8132 5.05616C29.4182 4.66835 28.8739 4.47444 28.1802 4.47444Z" fill="white" />
    <path d="M43.662 3.31101C44.529 3.31101 45.2034 3.534 45.6851 3.97999C46.1764 4.41627 46.4221 5.04162 46.4221 5.85602C46.4221 6.07901 46.3884 6.38441 46.3209 6.77222L45.4683 11.0915H44.081L44.9336 6.77222C44.9818 6.50075 45.0059 6.27776 45.0059 6.10325C45.0059 5.59909 44.8662 5.21613 44.5868 4.95436C44.3074 4.69259 43.8835 4.5617 43.3151 4.5617C42.6022 4.5617 42.0145 4.7653 41.5521 5.1725C41.0993 5.57001 40.791 6.17111 40.6273 6.97582L39.8035 11.0915H38.4163L39.2833 6.77222C39.3315 6.51045 39.3556 6.2923 39.3556 6.11779C39.3556 5.61364 39.2111 5.23067 38.922 4.9689C38.6427 4.69743 38.2188 4.5617 37.6504 4.5617C36.9374 4.5617 36.3498 4.7653 35.8873 5.1725C35.4345 5.5797 35.1262 6.19535 34.9625 7.01945L34.1532 11.0915H32.7659L34.2833 3.38373H35.6128L35.4249 4.34356C36.0993 3.65519 36.9856 3.31101 38.0839 3.31101C38.6812 3.31101 39.1918 3.42736 39.6157 3.66004C40.0396 3.89273 40.3479 4.23206 40.5405 4.67804C41.3209 3.76669 42.3614 3.31101 43.662 3.31101Z" fill="white" />
    <path d="M53.3967 3.31101C54.0518 3.31101 54.6347 3.44675 55.1453 3.71821C55.6559 3.97998 56.0557 4.36295 56.3447 4.8671C56.6337 5.36156 56.7782 5.94812 56.7782 6.62679C56.7782 7.49936 56.5904 8.27983 56.2147 8.96819C55.8389 9.65656 55.3187 10.1995 54.654 10.597C53.9988 10.9848 53.2618 11.1787 52.4429 11.1787C51.7878 11.1787 51.2243 11.0624 50.7522 10.8297C50.2801 10.5873 49.9188 10.2383 49.6684 9.78259L48.8591 13.9128H47.4718L49.5528 3.38373H50.8822L50.6944 4.34356C51.4073 3.65519 52.3081 3.31101 53.3967 3.31101ZM52.3851 9.95711C52.9536 9.95711 53.4642 9.82138 53.917 9.54991C54.3698 9.26875 54.7262 8.88094 54.9863 8.38648C55.2464 7.89202 55.3765 7.32969 55.3765 6.6995C55.3765 6.01114 55.179 5.4779 54.784 5.09979C54.389 4.72167 53.8254 4.53261 53.0932 4.53261C52.5248 4.53261 52.0094 4.6732 51.547 4.95436C51.0942 5.22583 50.7377 5.60879 50.4776 6.10325C50.2271 6.5977 50.1019 7.16003 50.1019 7.79022C50.1019 8.46889 50.2994 9.00213 50.6944 9.38994C51.099 9.76805 51.6626 9.95711 52.3851 9.95711Z" fill="white" />
    <path d="M60.0245 0.300636H61.4118L59.2731 11.0915H57.8858L60.0245 0.300636Z" fill="white" />
    <path d="M65.5057 11.1787C64.7832 11.1787 64.1522 11.043 63.6127 10.7715C63.0731 10.4903 62.6541 10.0977 62.3554 9.59354C62.0568 9.08938 61.9074 8.50767 61.9074 7.84839C61.9074 6.98551 62.1001 6.20989 62.4855 5.52153C62.8708 4.83317 63.4055 4.29508 64.0895 3.90727C64.7735 3.50977 65.5443 3.31101 66.4017 3.31101C67.1242 3.31101 67.7553 3.44675 68.2948 3.71821C68.8343 3.98968 69.2485 4.37749 69.5375 4.88164C69.8362 5.3761 69.9855 5.95782 69.9855 6.62679C69.9855 7.48967 69.7928 8.27014 69.4075 8.96819C69.0221 9.65656 68.4874 10.1995 67.8034 10.597C67.1291 10.9848 66.3632 11.1787 65.5057 11.1787ZM65.5924 9.95711C66.1608 9.95711 66.6714 9.82138 67.1242 9.54991C67.5867 9.26875 67.9431 8.88094 68.1936 8.38648C68.4537 7.89202 68.5838 7.32969 68.5838 6.6995C68.5838 6.01114 68.3863 5.4779 67.9913 5.09979C67.5963 4.72167 67.0327 4.53261 66.3005 4.53261C65.7321 4.53261 65.2215 4.6732 64.7687 4.95436C64.3159 5.22583 63.9595 5.60879 63.6994 6.10325C63.4392 6.5977 63.3092 7.16003 63.3092 7.79022C63.3092 8.46889 63.5067 9.00213 63.9017 9.38994C64.3063 9.76805 64.8699 9.95711 65.5924 9.95711Z" fill="white" />
    <path d="M79.178 3.38373L73.7445 11.9349C73.2531 12.7106 72.7859 13.2486 72.3427 13.5492C71.8996 13.8498 71.3745 14 70.7676 14C70.3918 14 70.0258 13.937 69.6693 13.811C69.3128 13.6946 69.0383 13.5298 68.8456 13.3165L69.5681 12.284C69.915 12.633 70.3485 12.8075 70.8687 12.8075C71.1963 12.8075 71.4853 12.7203 71.7358 12.5457C71.9863 12.3712 72.2464 12.0755 72.5161 11.6586L72.9063 11.0478L71.0566 3.38373H72.4439L73.9179 9.54991L77.7763 3.38373H79.178Z" fill="white" />
    <path d="M80.0877 7.67388V7.76113C80.0877 8.47858 80.29 9.02636 80.6946 9.40448C81.0992 9.7729 81.7062 9.95711 82.5154 9.95711C82.9875 9.95711 83.4307 9.87955 83.8449 9.72442C84.2592 9.5596 84.606 9.34146 84.8854 9.06999L85.4779 10.0735C85.1021 10.4225 84.6445 10.6939 84.105 10.8879C83.5655 11.0818 82.9971 11.1787 82.3998 11.1787C81.6484 11.1787 80.9981 11.043 80.4489 10.7715C79.8998 10.5 79.4759 10.1122 79.1772 9.60808C78.8786 9.10393 78.7293 8.51252 78.7293 7.83385C78.7293 6.97097 78.9123 6.19535 79.2784 5.50699C79.6541 4.81862 80.1695 4.28054 80.8247 3.89273C81.4894 3.50492 82.2312 3.31101 83.0501 3.31101C84.0906 3.31101 84.9191 3.61157 85.5357 4.21267C86.1619 4.80408 86.475 5.61363 86.475 6.64133C86.475 6.95158 86.4413 7.29576 86.3738 7.67388H80.0877ZM82.9923 4.47444C82.3083 4.47444 81.7206 4.66835 81.2293 5.05616C80.738 5.44397 80.4056 5.97721 80.2322 6.65588H85.1744C85.2129 5.96751 85.0299 5.43427 84.6253 5.05616C84.2303 4.66835 83.6859 4.47444 82.9923 4.47444Z" fill="white" />
    <path d="M90.2081 4.53261C90.5453 4.10602 90.9595 3.79578 91.4509 3.60187C91.9422 3.40796 92.5395 3.31101 93.2428 3.31101L92.9827 4.6635C92.896 4.65381 92.7755 4.64896 92.6214 4.64896C91.0318 4.64896 90.0684 5.51184 89.7312 7.23759L88.9653 11.0915H87.578L89.0954 3.38373H90.4248L90.2081 4.53261Z" fill="white" />
    <path d="M95.8761 11.1787C95.2403 11.1787 94.6333 11.0963 94.0553 10.9315C93.4869 10.7667 93.0437 10.5534 92.7258 10.2916L93.3472 9.18634C93.6459 9.42872 94.0312 9.62262 94.5033 9.76805C94.985 9.90379 95.486 9.97165 96.0062 9.97165C96.6613 9.97165 97.1575 9.8747 97.4946 9.68079C97.8415 9.47719 98.0149 9.19603 98.0149 8.83731C98.0149 8.54645 97.8752 8.338 97.5958 8.21196C97.326 8.08593 96.9022 7.95989 96.3241 7.83385C95.7846 7.71751 95.3414 7.60116 94.9946 7.48482C94.6574 7.35878 94.3684 7.16488 94.1276 6.9031C93.8867 6.63164 93.7663 6.26806 93.7663 5.81239C93.7663 5.30823 93.906 4.8671 94.1854 4.48899C94.4744 4.11087 94.879 3.82001 95.3993 3.61641C95.9291 3.41281 96.5409 3.31101 97.2345 3.31101C97.7451 3.31101 98.2413 3.37403 98.723 3.50007C99.2047 3.62611 99.5997 3.79578 99.908 4.00907L99.3588 5.11433C99.0602 4.91073 98.7133 4.76045 98.3183 4.6635C97.9234 4.55685 97.5187 4.50353 97.1045 4.50353C96.4783 4.50353 95.9966 4.61018 95.6594 4.82347C95.3222 5.02707 95.1536 5.30339 95.1536 5.65242C95.1536 5.96266 95.2933 6.18566 95.5727 6.32139C95.852 6.44743 96.2856 6.57347 96.8732 6.6995C97.4031 6.81585 97.8366 6.93219 98.1738 7.04853C98.511 7.16488 98.7952 7.35393 99.0264 7.61571C99.2673 7.87748 99.3877 8.23135 99.3877 8.67734C99.3877 9.46265 99.065 10.0783 98.4195 10.5243C97.7837 10.9606 96.9359 11.1787 95.8761 11.1787Z" fill="white" />
</svg>